<svg width="15" height="17" viewBox="0 0 15 17" fill="none" xmlns="http://www.w3.org/2000/svg">
<path d="M0.871278 0.823931C0.659053 0.8228 0.45507 0.906017 0.304199 1.05528C0.153329 1.20454 0.0679286 1.40762 0.0667839 1.61984C0.0547641 4.40843 0.987315 6.3292 2.32717 7.75575C3.51253 9.01672 5.00567 9.87262 6.28074 10.6026L6.65089 10.8151L11.9068 13.8496L6.4848 15.3024C6.38171 15.3282 6.28478 15.3742 6.19968 15.4379C6.11457 15.5015 6.04299 15.5814 5.9891 15.673C5.93522 15.7646 5.90012 15.866 5.88584 15.9713C5.87156 16.0766 5.8784 16.1837 5.90595 16.2863C5.9335 16.3889 5.98121 16.485 6.0463 16.569C6.11139 16.653 6.19256 16.7232 6.28506 16.7755C6.37757 16.8277 6.47956 16.8611 6.58509 16.8735C6.69062 16.886 6.79757 16.8773 6.8997 16.8479L14.1874 14.8952C14.3922 14.8402 14.5668 14.7062 14.6728 14.5225C14.7788 14.3389 14.8076 14.1206 14.7529 13.9157L12.8001 6.62809C12.7394 6.42982 12.6042 6.26286 12.4228 6.16237C12.2414 6.06188 12.0281 6.03571 11.8278 6.08937C11.6276 6.14304 11.4559 6.27235 11.3491 6.45006C11.2423 6.62777 11.2086 6.84001 11.2552 7.04207L12.708 12.4641L7.09907 9.22578C5.79312 8.47671 4.50618 7.7374 3.4943 6.66037C2.43026 5.52858 1.65769 4.0008 1.66918 1.62711C1.66957 1.52197 1.64923 1.41778 1.60934 1.32051C1.56944 1.22323 1.51076 1.13477 1.43666 1.06018C1.36256 0.98559 1.27449 0.926332 1.17748 0.885795C1.08047 0.845258 0.976418 0.824237 0.871278 0.823931Z" fill="black"/>
</svg>
